# xmcd CD database file
#
# Track frame offsets:
#	150
#	77225
#	198238
#	268635
#
# Disc length: 4319 seconds
#
# Revision: 0
# Processed by: cddbd v1.4PL0 Copyright (c) Steve Scherf et al.
# Submitted via: CDex 1.50
#
DISCID=2e10dd04
DTITLE=Dieter Krowatschek - Ich kann ruhig sein
DYEAR=1997
DGENRE=New Age
TTITLE0=Reisen mit dem Zauberteppich
TTITLE1=Eine Reise durch den Koerper
TTITLE2=Musik zum Entspannen I
TTITLE3=Musik zum Entspannen II
EXTD=YEAR: 1997
EXTT0=
EXTT1=
EXTT2=
EXTT3=
PLAYORDER=
